<mxfile host="app.diagrams.net" modified="2023-10-25T20:53:36.990Z" agent="Mozilla/5.0 (X11; Linux x86_64) AppleWebKit/537.36 (KHTML, like Gecko) Chrome/118.0.0.0 Safari/537.36" etag="oxWBvWLn8FpsvWf74f_i" version="22.0.6" type="device">
  <diagram name="Page-1" id="_Gakuy9Rwmy7J1l9Ox4a">
    <mxGraphModel dx="2860" dy="2297" grid="1" gridSize="10" guides="1" tooltips="1" connect="1" arrows="1" fold="1" page="1" pageScale="1" pageWidth="850" pageHeight="1100" math="0" shadow="0">
      <root>
        <mxCell id="0" />
        <mxCell id="1" parent="0" />
        <mxCell id="bKiuF4yFzHOzXGZw1D5E-48" style="edgeStyle=orthogonalEdgeStyle;rounded=0;orthogonalLoop=1;jettySize=auto;html=1;exitX=0.5;exitY=0;exitDx=0;exitDy=0;entryX=0.5;entryY=1;entryDx=0;entryDy=0;endArrow=none;endFill=0;" parent="1" source="5OxK8GY9uhZKVVhu8Ng6-3" target="5OxK8GY9uhZKVVhu8Ng6-19" edge="1">
          <mxGeometry relative="1" as="geometry" />
        </mxCell>
        <mxCell id="0pBTjXm3hgC8G4XIWA7s-2" style="edgeStyle=orthogonalEdgeStyle;rounded=0;orthogonalLoop=1;jettySize=auto;html=1;exitX=0.5;exitY=0;exitDx=0;exitDy=0;entryX=1;entryY=0.25;entryDx=0;entryDy=0;endArrow=none;endFill=0;strokeWidth=2;" parent="1" source="5OxK8GY9uhZKVVhu8Ng6-3" target="bKiuF4yFzHOzXGZw1D5E-69" edge="1">
          <mxGeometry relative="1" as="geometry">
            <Array as="points">
              <mxPoint x="420" y="322" />
            </Array>
          </mxGeometry>
        </mxCell>
        <mxCell id="5OxK8GY9uhZKVVhu8Ng6-3" value="RSA" style="rounded=0;whiteSpace=wrap;html=1;verticalAlign=top;fontStyle=1" parent="1" vertex="1">
          <mxGeometry x="300" y="645" width="240" height="50" as="geometry" />
        </mxCell>
        <mxCell id="5OxK8GY9uhZKVVhu8Ng6-4" value="&lt;div style=&quot;font-size: 10px;&quot;&gt;&lt;i style=&quot;font-size: 10px;&quot;&gt;1977 &quot;A Method for Obtaining Digital&lt;/i&gt;&lt;/div&gt;&lt;div style=&quot;font-size: 10px;&quot;&gt;&lt;i style=&quot;font-size: 10px;&quot;&gt;Signatures and Public-Key Cryptosystems&quot;&lt;/i&gt;&lt;/div&gt;" style="text;html=1;strokeColor=none;fillColor=none;align=center;verticalAlign=middle;whiteSpace=wrap;rounded=0;fontSize=10;" parent="1" vertex="1">
          <mxGeometry x="317.5" y="665" width="205" height="30" as="geometry" />
        </mxCell>
        <mxCell id="bKiuF4yFzHOzXGZw1D5E-57" style="edgeStyle=orthogonalEdgeStyle;rounded=0;orthogonalLoop=1;jettySize=auto;html=1;exitX=1;exitY=0.5;exitDx=0;exitDy=0;entryX=0.5;entryY=1;entryDx=0;entryDy=0;endArrow=none;endFill=0;strokeWidth=2;dashed=1;" parent="1" source="5OxK8GY9uhZKVVhu8Ng6-5" target="5OxK8GY9uhZKVVhu8Ng6-4" edge="1">
          <mxGeometry relative="1" as="geometry" />
        </mxCell>
        <mxCell id="bKiuF4yFzHOzXGZw1D5E-58" style="edgeStyle=orthogonalEdgeStyle;rounded=0;orthogonalLoop=1;jettySize=auto;html=1;exitX=1;exitY=0.5;exitDx=0;exitDy=0;entryX=0.5;entryY=1;entryDx=0;entryDy=0;endArrow=none;endFill=0;strokeWidth=2;dashed=1;" parent="1" source="5OxK8GY9uhZKVVhu8Ng6-5" target="EViZx0agSCuf6M4wwf37-3" edge="1">
          <mxGeometry relative="1" as="geometry" />
        </mxCell>
        <mxCell id="bKiuF4yFzHOzXGZw1D5E-65" style="edgeStyle=orthogonalEdgeStyle;rounded=0;orthogonalLoop=1;jettySize=auto;html=1;exitX=0.5;exitY=0;exitDx=0;exitDy=0;entryX=0.5;entryY=1;entryDx=0;entryDy=0;endArrow=none;endFill=0;" parent="1" source="5OxK8GY9uhZKVVhu8Ng6-5" target="bKiuF4yFzHOzXGZw1D5E-64" edge="1">
          <mxGeometry relative="1" as="geometry" />
        </mxCell>
        <mxCell id="5OxK8GY9uhZKVVhu8Ng6-5" value="Diffie–Hellman–Merkle" style="rounded=0;whiteSpace=wrap;html=1;verticalAlign=top;fontStyle=1" parent="1" vertex="1">
          <mxGeometry x="10" y="715" width="240" height="50" as="geometry" />
        </mxCell>
        <mxCell id="5OxK8GY9uhZKVVhu8Ng6-6" value="&lt;div style=&quot;font-size: 10px;&quot;&gt;&lt;i style=&quot;font-size: 10px;&quot;&gt;1976 &quot;New Directions in Cryptography&lt;/i&gt;&lt;i style=&quot;background-color: initial;&quot;&gt;&quot;&lt;/i&gt;&lt;/div&gt;" style="text;html=1;strokeColor=none;fillColor=none;align=center;verticalAlign=middle;whiteSpace=wrap;rounded=0;fontSize=10;" parent="1" vertex="1">
          <mxGeometry x="20" y="735" width="220" height="30" as="geometry" />
        </mxCell>
        <mxCell id="5OxK8GY9uhZKVVhu8Ng6-11" style="edgeStyle=orthogonalEdgeStyle;rounded=0;orthogonalLoop=1;jettySize=auto;html=1;exitX=0.5;exitY=0;exitDx=0;exitDy=0;entryX=0.5;entryY=1;entryDx=0;entryDy=0;endArrow=none;endFill=0;" parent="1" source="5OxK8GY9uhZKVVhu8Ng6-7" target="5OxK8GY9uhZKVVhu8Ng6-6" edge="1">
          <mxGeometry relative="1" as="geometry" />
        </mxCell>
        <mxCell id="k-c9xOF6KfIPOerJ2Ct1-3" style="edgeStyle=orthogonalEdgeStyle;rounded=0;orthogonalLoop=1;jettySize=auto;html=1;exitX=0;exitY=0.5;exitDx=0;exitDy=0;endArrow=none;endFill=0;" parent="1" source="5OxK8GY9uhZKVVhu8Ng6-7" target="k-c9xOF6KfIPOerJ2Ct1-2" edge="1">
          <mxGeometry relative="1" as="geometry">
            <mxPoint x="-160" y="580" as="targetPoint" />
          </mxGeometry>
        </mxCell>
        <mxCell id="5OxK8GY9uhZKVVhu8Ng6-7" value="Discrete Logarithm Problem" style="rounded=0;whiteSpace=wrap;html=1;fontStyle=1" parent="1" vertex="1">
          <mxGeometry x="10" y="1035" width="240" height="50" as="geometry" />
        </mxCell>
        <mxCell id="bKiuF4yFzHOzXGZw1D5E-45" style="edgeStyle=orthogonalEdgeStyle;rounded=0;orthogonalLoop=1;jettySize=auto;html=1;exitX=0.5;exitY=0;exitDx=0;exitDy=0;endArrow=none;endFill=0;" parent="1" source="5OxK8GY9uhZKVVhu8Ng6-8" target="5OxK8GY9uhZKVVhu8Ng6-4" edge="1">
          <mxGeometry relative="1" as="geometry" />
        </mxCell>
        <mxCell id="bKiuF4yFzHOzXGZw1D5E-84" style="edgeStyle=orthogonalEdgeStyle;rounded=0;orthogonalLoop=1;jettySize=auto;html=1;exitX=0;exitY=0.5;exitDx=0;exitDy=0;endArrow=none;endFill=0;" parent="1" source="5OxK8GY9uhZKVVhu8Ng6-8" target="bKiuF4yFzHOzXGZw1D5E-82" edge="1">
          <mxGeometry relative="1" as="geometry" />
        </mxCell>
        <mxCell id="5OxK8GY9uhZKVVhu8Ng6-8" value="Integer Factorization Problem" style="rounded=0;whiteSpace=wrap;html=1;fontStyle=1" parent="1" vertex="1">
          <mxGeometry x="300" y="1035" width="240" height="50" as="geometry" />
        </mxCell>
        <mxCell id="iTPlaFrZ3am5uFywpVSG-8" style="edgeStyle=orthogonalEdgeStyle;rounded=0;orthogonalLoop=1;jettySize=auto;html=1;exitX=0.5;exitY=0;exitDx=0;exitDy=0;endArrow=none;endFill=0;" parent="1" source="5OxK8GY9uhZKVVhu8Ng6-18" target="iTPlaFrZ3am5uFywpVSG-2" edge="1">
          <mxGeometry relative="1" as="geometry" />
        </mxCell>
        <mxCell id="5OxK8GY9uhZKVVhu8Ng6-18" value="Ring Signatures" style="rounded=0;whiteSpace=wrap;html=1;verticalAlign=top;fontStyle=1" parent="1" vertex="1">
          <mxGeometry x="300" width="240" height="50" as="geometry" />
        </mxCell>
        <mxCell id="5OxK8GY9uhZKVVhu8Ng6-19" value="2001&lt;span style=&quot;background-color: initial;&quot;&gt;&amp;nbsp;&quot;How to Leak a Secret&quot;&lt;/span&gt;" style="text;html=1;strokeColor=none;fillColor=none;align=center;verticalAlign=middle;whiteSpace=wrap;rounded=0;fontSize=10;fontStyle=2" parent="1" vertex="1">
          <mxGeometry x="317.5" y="20" width="205" height="30" as="geometry" />
        </mxCell>
        <mxCell id="UQZLAUg-E6xwBRMjZwB7-10" style="edgeStyle=orthogonalEdgeStyle;rounded=0;orthogonalLoop=1;jettySize=auto;html=1;exitX=0.5;exitY=0;exitDx=0;exitDy=0;entryX=0.5;entryY=1;entryDx=0;entryDy=0;endArrow=none;endFill=0;" parent="1" source="EViZx0agSCuf6M4wwf37-2" target="UQZLAUg-E6xwBRMjZwB7-9" edge="1">
          <mxGeometry relative="1" as="geometry" />
        </mxCell>
        <mxCell id="EViZx0agSCuf6M4wwf37-2" value="Merkle–Damgård Hashing" style="rounded=0;whiteSpace=wrap;html=1;verticalAlign=top;fontStyle=1" parent="1" vertex="1">
          <mxGeometry x="450" y="575" width="240" height="50" as="geometry" />
        </mxCell>
        <mxCell id="EViZx0agSCuf6M4wwf37-3" value="&lt;i&gt;1979 &quot;Secrecy, Authentication, and Public Key Systems&quot;&lt;/i&gt;" style="text;html=1;strokeColor=none;fillColor=none;align=center;verticalAlign=middle;whiteSpace=wrap;rounded=0;fontSize=10;" parent="1" vertex="1">
          <mxGeometry x="451.88" y="595" width="236.25" height="30" as="geometry" />
        </mxCell>
        <mxCell id="UQZLAUg-E6xwBRMjZwB7-6" style="edgeStyle=orthogonalEdgeStyle;rounded=0;orthogonalLoop=1;jettySize=auto;html=1;exitX=0.5;exitY=0;exitDx=0;exitDy=0;entryX=0.5;entryY=1;entryDx=0;entryDy=0;endArrow=none;endFill=0;" parent="1" source="EViZx0agSCuf6M4wwf37-6" target="UQZLAUg-E6xwBRMjZwB7-5" edge="1">
          <mxGeometry relative="1" as="geometry" />
        </mxCell>
        <mxCell id="bKiuF4yFzHOzXGZw1D5E-47" style="edgeStyle=orthogonalEdgeStyle;rounded=0;orthogonalLoop=1;jettySize=auto;html=1;exitX=0;exitY=0.5;exitDx=0;exitDy=0;entryX=0.5;entryY=1;entryDx=0;entryDy=0;endArrow=none;endFill=0;" parent="1" source="EViZx0agSCuf6M4wwf37-6" target="EViZx0agSCuf6M4wwf37-3" edge="1">
          <mxGeometry relative="1" as="geometry" />
        </mxCell>
        <mxCell id="EViZx0agSCuf6M4wwf37-6" value="Diffusion and Confusion" style="rounded=0;whiteSpace=wrap;html=1;verticalAlign=top;fontStyle=1" parent="1" vertex="1">
          <mxGeometry x="590" y="835" width="240" height="50" as="geometry" />
        </mxCell>
        <mxCell id="EViZx0agSCuf6M4wwf37-7" value="&lt;i&gt;1945 &quot;A Mathematical Theory of Cryptography&quot;&lt;/i&gt;" style="text;html=1;strokeColor=none;fillColor=none;align=center;verticalAlign=middle;whiteSpace=wrap;rounded=0;fontSize=10;" parent="1" vertex="1">
          <mxGeometry x="607.5" y="855" width="205" height="30" as="geometry" />
        </mxCell>
        <mxCell id="0pBTjXm3hgC8G4XIWA7s-8" style="edgeStyle=orthogonalEdgeStyle;rounded=0;orthogonalLoop=1;jettySize=auto;html=1;exitX=0.5;exitY=0;exitDx=0;exitDy=0;endArrow=none;endFill=0;" parent="1" source="UQZLAUg-E6xwBRMjZwB7-2" edge="1">
          <mxGeometry relative="1" as="geometry">
            <mxPoint x="420" y="50" as="targetPoint" />
            <Array as="points">
              <mxPoint x="710" y="70" />
              <mxPoint x="421" y="70" />
            </Array>
          </mxGeometry>
        </mxCell>
        <mxCell id="UQZLAUg-E6xwBRMjZwB7-2" value="AES" style="rounded=0;whiteSpace=wrap;html=1;verticalAlign=top;fontStyle=1" parent="1" vertex="1">
          <mxGeometry x="590" y="200" width="240" height="50" as="geometry" />
        </mxCell>
        <mxCell id="UQZLAUg-E6xwBRMjZwB7-3" value="1998 &quot;The Rijndael block cipher&quot;" style="text;html=1;strokeColor=none;fillColor=none;align=center;verticalAlign=middle;whiteSpace=wrap;rounded=0;fontSize=10;fontStyle=2" parent="1" vertex="1">
          <mxGeometry x="607.5" y="220" width="205" height="30" as="geometry" />
        </mxCell>
        <mxCell id="UQZLAUg-E6xwBRMjZwB7-7" style="edgeStyle=orthogonalEdgeStyle;rounded=0;orthogonalLoop=1;jettySize=auto;html=1;exitX=0.5;exitY=0;exitDx=0;exitDy=0;entryX=0.5;entryY=1;entryDx=0;entryDy=0;endArrow=none;endFill=0;" parent="1" target="UQZLAUg-E6xwBRMjZwB7-3" edge="1">
          <mxGeometry relative="1" as="geometry">
            <mxPoint x="710" y="765" as="sourcePoint" />
          </mxGeometry>
        </mxCell>
        <mxCell id="UQZLAUg-E6xwBRMjZwB7-4" value="&lt;b style=&quot;color: rgb(32, 33, 34); font-family: sans-serif; font-size: 14px; text-align: start; background-color: rgb(255, 255, 255); animation-delay: -0.01ms !important; animation-duration: 0.01ms !important; animation-iteration-count: 1 !important; scroll-behavior: auto !important; transition-duration: 0ms !important;&quot;&gt;Feistel&amp;nbsp;Network&lt;/b&gt;" style="rounded=0;whiteSpace=wrap;html=1;verticalAlign=top;fontStyle=1" parent="1" vertex="1">
          <mxGeometry x="590" y="755" width="240" height="50" as="geometry" />
        </mxCell>
        <mxCell id="UQZLAUg-E6xwBRMjZwB7-5" value="1973 IBM&#39;s commercial Lucifer Cipher&lt;br&gt;1975 IBM/NSA proposal for DES" style="text;html=1;strokeColor=none;fillColor=none;align=center;verticalAlign=middle;whiteSpace=wrap;rounded=0;fontSize=10;fontStyle=2" parent="1" vertex="1">
          <mxGeometry x="607.5" y="775" width="205" height="30" as="geometry" />
        </mxCell>
        <mxCell id="UQZLAUg-E6xwBRMjZwB7-15" style="edgeStyle=orthogonalEdgeStyle;rounded=0;orthogonalLoop=1;jettySize=auto;html=1;exitX=0.5;exitY=0;exitDx=0;exitDy=0;entryX=0.5;entryY=1;entryDx=0;entryDy=0;endArrow=none;endFill=0;" parent="1" source="UQZLAUg-E6xwBRMjZwB7-8" target="UQZLAUg-E6xwBRMjZwB7-12" edge="1">
          <mxGeometry relative="1" as="geometry" />
        </mxCell>
        <mxCell id="UQZLAUg-E6xwBRMjZwB7-8" value="Message-Digest algorithm" style="rounded=0;whiteSpace=wrap;html=1;verticalAlign=top;fontStyle=1" parent="1" vertex="1">
          <mxGeometry x="450.01" y="335" width="240" height="50" as="geometry" />
        </mxCell>
        <mxCell id="UQZLAUg-E6xwBRMjZwB7-9" value="1992 &quot;The MD5 Message-Digest Algorithm&quot;" style="text;html=1;strokeColor=none;fillColor=none;align=center;verticalAlign=middle;whiteSpace=wrap;rounded=0;fontSize=10;fontStyle=2" parent="1" vertex="1">
          <mxGeometry x="467.51" y="355" width="205" height="30" as="geometry" />
        </mxCell>
        <mxCell id="0pBTjXm3hgC8G4XIWA7s-9" style="edgeStyle=orthogonalEdgeStyle;rounded=0;orthogonalLoop=1;jettySize=auto;html=1;exitX=0.5;exitY=0;exitDx=0;exitDy=0;endArrow=none;endFill=0;" parent="1" source="UQZLAUg-E6xwBRMjZwB7-11" edge="1">
          <mxGeometry relative="1" as="geometry">
            <mxPoint x="420" y="50" as="targetPoint" />
            <Array as="points">
              <mxPoint x="570" y="70" />
              <mxPoint x="421" y="70" />
            </Array>
          </mxGeometry>
        </mxCell>
        <mxCell id="UQZLAUg-E6xwBRMjZwB7-11" value="Secure Hash Algorithm" style="rounded=0;whiteSpace=wrap;html=1;verticalAlign=top;fontStyle=1" parent="1" vertex="1">
          <mxGeometry x="451.88" y="265" width="240" height="50" as="geometry" />
        </mxCell>
        <mxCell id="UQZLAUg-E6xwBRMjZwB7-12" value="1995 &quot;FIPS 180-1, Secure Hash Standard&quot;" style="text;html=1;strokeColor=none;fillColor=none;align=center;verticalAlign=middle;whiteSpace=wrap;rounded=0;fontSize=10;fontStyle=2" parent="1" vertex="1">
          <mxGeometry x="469.38" y="285" width="205" height="30" as="geometry" />
        </mxCell>
        <mxCell id="UQZLAUg-E6xwBRMjZwB7-18" style="edgeStyle=orthogonalEdgeStyle;rounded=0;orthogonalLoop=1;jettySize=auto;html=1;exitX=0.5;exitY=0;exitDx=0;exitDy=0;endArrow=none;endFill=0;" parent="1" source="UQZLAUg-E6xwBRMjZwB7-16" target="EViZx0agSCuf6M4wwf37-7" edge="1">
          <mxGeometry relative="1" as="geometry" />
        </mxCell>
        <mxCell id="UQZLAUg-E6xwBRMjZwB7-16" value="Kerckhoffs’ Principle" style="rounded=0;whiteSpace=wrap;html=1;verticalAlign=top;fontStyle=1" parent="1" vertex="1">
          <mxGeometry x="590" y="915" width="240" height="50" as="geometry" />
        </mxCell>
        <mxCell id="UQZLAUg-E6xwBRMjZwB7-17" value="&lt;i&gt;1883 &quot;La Cryptographie Militaire&quot;&lt;/i&gt;" style="text;html=1;strokeColor=none;fillColor=none;align=center;verticalAlign=middle;whiteSpace=wrap;rounded=0;fontSize=10;" parent="1" vertex="1">
          <mxGeometry x="607.5" y="935" width="205" height="30" as="geometry" />
        </mxCell>
        <mxCell id="UQZLAUg-E6xwBRMjZwB7-20" style="edgeStyle=orthogonalEdgeStyle;rounded=0;orthogonalLoop=1;jettySize=auto;html=1;exitX=0.5;exitY=0;exitDx=0;exitDy=0;entryX=0.5;entryY=1;entryDx=0;entryDy=0;endArrow=none;endFill=0;" parent="1" source="UQZLAUg-E6xwBRMjZwB7-19" target="UQZLAUg-E6xwBRMjZwB7-17" edge="1">
          <mxGeometry relative="1" as="geometry" />
        </mxCell>
        <mxCell id="UQZLAUg-E6xwBRMjZwB7-19" value="Symmetric Ciphers" style="rounded=0;whiteSpace=wrap;html=1;fontStyle=1" parent="1" vertex="1">
          <mxGeometry x="590" y="1035" width="240" height="50" as="geometry" />
        </mxCell>
        <mxCell id="FztsdhfekNK0aXIRvkF4-20" style="edgeStyle=orthogonalEdgeStyle;rounded=0;orthogonalLoop=1;jettySize=auto;html=1;exitX=0.5;exitY=0;exitDx=0;exitDy=0;entryX=0.5;entryY=1;entryDx=0;entryDy=0;endArrow=none;endFill=0;" parent="1" source="bKiuF4yFzHOzXGZw1D5E-63" target="FztsdhfekNK0aXIRvkF4-10" edge="1">
          <mxGeometry relative="1" as="geometry" />
        </mxCell>
        <mxCell id="bKiuF4yFzHOzXGZw1D5E-63" value="ElGamal Signature Scheme" style="rounded=0;whiteSpace=wrap;html=1;verticalAlign=top;fontStyle=1" parent="1" vertex="1">
          <mxGeometry x="10" y="540" width="240" height="50" as="geometry" />
        </mxCell>
        <mxCell id="bKiuF4yFzHOzXGZw1D5E-64" value="1985 &quot;A Public Key Cryptosystem and a Signature Scheme Based on Discrete Logarithms&quot;" style="text;html=1;strokeColor=none;fillColor=none;align=center;verticalAlign=middle;whiteSpace=wrap;rounded=0;fontSize=10;fontStyle=2" parent="1" vertex="1">
          <mxGeometry x="10" y="560" width="240" height="30" as="geometry" />
        </mxCell>
        <mxCell id="bKiuF4yFzHOzXGZw1D5E-81" style="edgeStyle=orthogonalEdgeStyle;rounded=0;orthogonalLoop=1;jettySize=auto;html=1;exitX=0.5;exitY=0;exitDx=0;exitDy=0;dashed=1;strokeWidth=2;endArrow=none;endFill=0;" parent="1" source="bKiuF4yFzHOzXGZw1D5E-68" target="5OxK8GY9uhZKVVhu8Ng6-19" edge="1">
          <mxGeometry relative="1" as="geometry">
            <Array as="points">
              <mxPoint x="280" y="70" />
              <mxPoint x="420" y="70" />
            </Array>
          </mxGeometry>
        </mxCell>
        <mxCell id="bKiuF4yFzHOzXGZw1D5E-68" value="Group Signatures" style="rounded=0;whiteSpace=wrap;html=1;verticalAlign=top;fontStyle=1" parent="1" vertex="1">
          <mxGeometry x="160" y="295" width="240" height="50" as="geometry" />
        </mxCell>
        <mxCell id="bKiuF4yFzHOzXGZw1D5E-69" value="1991 &quot;Group signatures&quot;&lt;br&gt;1997 &quot;Efficient and Generalized Group Signatures&quot;" style="text;html=1;strokeColor=none;fillColor=none;align=center;verticalAlign=middle;whiteSpace=wrap;rounded=0;fontSize=10;fontStyle=2" parent="1" vertex="1">
          <mxGeometry x="160" y="315" width="240" height="30" as="geometry" />
        </mxCell>
        <mxCell id="bKiuF4yFzHOzXGZw1D5E-90" style="edgeStyle=orthogonalEdgeStyle;rounded=0;orthogonalLoop=1;jettySize=auto;html=1;exitX=0.5;exitY=0;exitDx=0;exitDy=0;entryX=0.5;entryY=1;entryDx=0;entryDy=0;endArrow=none;endFill=0;" parent="1" source="bKiuF4yFzHOzXGZw1D5E-70" target="bKiuF4yFzHOzXGZw1D5E-89" edge="1">
          <mxGeometry relative="1" as="geometry" />
        </mxCell>
        <mxCell id="bKiuF4yFzHOzXGZw1D5E-70" value="Interactive Zero Knowledge Proofs" style="rounded=0;whiteSpace=wrap;html=1;verticalAlign=top;fontStyle=1" parent="1" vertex="1">
          <mxGeometry x="160" y="480" width="240" height="50" as="geometry" />
        </mxCell>
        <mxCell id="FztsdhfekNK0aXIRvkF4-26" style="edgeStyle=orthogonalEdgeStyle;rounded=0;orthogonalLoop=1;jettySize=auto;html=1;exitX=0;exitY=0.25;exitDx=0;exitDy=0;endArrow=none;endFill=0;strokeWidth=2;" parent="1" source="bKiuF4yFzHOzXGZw1D5E-71" target="FztsdhfekNK0aXIRvkF4-10" edge="1">
          <mxGeometry relative="1" as="geometry" />
        </mxCell>
        <mxCell id="vqqAjnGBxFojaJ7kC61R-10" style="edgeStyle=orthogonalEdgeStyle;rounded=0;orthogonalLoop=1;jettySize=auto;html=1;exitX=0;exitY=0.25;exitDx=0;exitDy=0;entryX=0.5;entryY=1;entryDx=0;entryDy=0;endArrow=none;endFill=0;strokeWidth=2;dashed=1;" edge="1" parent="1" source="bKiuF4yFzHOzXGZw1D5E-71" target="vqqAjnGBxFojaJ7kC61R-9">
          <mxGeometry relative="1" as="geometry">
            <Array as="points">
              <mxPoint x="120" y="508" />
              <mxPoint x="120" y="450" />
              <mxPoint x="-290" y="450" />
            </Array>
          </mxGeometry>
        </mxCell>
        <mxCell id="bKiuF4yFzHOzXGZw1D5E-71" value="&lt;span style=&quot;background-color: initial;&quot;&gt;1985 &quot;The Knowledge Complexity of Interactive Proof-Systems&quot;&lt;br&gt;&lt;/span&gt;" style="text;html=1;strokeColor=none;fillColor=none;align=center;verticalAlign=middle;whiteSpace=wrap;rounded=0;fontSize=10;fontStyle=2" parent="1" vertex="1">
          <mxGeometry x="160" y="500" width="240" height="30" as="geometry" />
        </mxCell>
        <mxCell id="bKiuF4yFzHOzXGZw1D5E-86" style="edgeStyle=orthogonalEdgeStyle;rounded=0;orthogonalLoop=1;jettySize=auto;html=1;exitX=0.5;exitY=0;exitDx=0;exitDy=0;entryX=0.5;entryY=1;entryDx=0;entryDy=0;endArrow=none;endFill=0;" parent="1" source="bKiuF4yFzHOzXGZw1D5E-82" target="bKiuF4yFzHOzXGZw1D5E-71" edge="1">
          <mxGeometry relative="1" as="geometry" />
        </mxCell>
        <mxCell id="bKiuF4yFzHOzXGZw1D5E-82" value="Quadratic Residuosity Problem" style="rounded=0;whiteSpace=wrap;html=1;fontStyle=1" parent="1" vertex="1">
          <mxGeometry x="160" y="965" width="240" height="50" as="geometry" />
        </mxCell>
        <mxCell id="FztsdhfekNK0aXIRvkF4-23" style="edgeStyle=orthogonalEdgeStyle;rounded=0;orthogonalLoop=1;jettySize=auto;html=1;exitX=0.5;exitY=0;exitDx=0;exitDy=0;entryX=0.5;entryY=1;entryDx=0;entryDy=0;endArrow=none;endFill=0;" parent="1" source="bKiuF4yFzHOzXGZw1D5E-88" target="bKiuF4yFzHOzXGZw1D5E-69" edge="1">
          <mxGeometry relative="1" as="geometry" />
        </mxCell>
        <mxCell id="bKiuF4yFzHOzXGZw1D5E-88" value="Non-Interactive Transformation" style="rounded=0;whiteSpace=wrap;html=1;verticalAlign=top;fontStyle=1" parent="1" vertex="1">
          <mxGeometry x="160" y="420" width="240" height="50" as="geometry" />
        </mxCell>
        <mxCell id="bKiuF4yFzHOzXGZw1D5E-89" value="&lt;span style=&quot;background-color: initial;&quot;&gt;1986 &quot;How to Prove Yourself: Practical Solutions to Identification and Signature Problems&quot;&lt;br&gt;&lt;/span&gt;" style="text;html=1;strokeColor=none;fillColor=none;align=center;verticalAlign=middle;whiteSpace=wrap;rounded=0;fontSize=10;fontStyle=2" parent="1" vertex="1">
          <mxGeometry x="160" y="440" width="240" height="30" as="geometry" />
        </mxCell>
        <mxCell id="0pBTjXm3hgC8G4XIWA7s-4" value="Asymmetric encryption" style="text;html=1;strokeColor=none;fillColor=none;align=center;verticalAlign=middle;whiteSpace=wrap;rounded=0;rotation=-90;" parent="1" vertex="1">
          <mxGeometry x="340" y="140" width="140" height="15" as="geometry" />
        </mxCell>
        <mxCell id="0pBTjXm3hgC8G4XIWA7s-5" value="Hashing" style="text;html=1;strokeColor=none;fillColor=none;align=center;verticalAlign=middle;whiteSpace=wrap;rounded=0;rotation=-90;" parent="1" vertex="1">
          <mxGeometry x="522.5" y="100" width="80" height="15" as="geometry" />
        </mxCell>
        <mxCell id="0pBTjXm3hgC8G4XIWA7s-6" value="Symmetric encryption" style="text;html=1;strokeColor=none;fillColor=none;align=center;verticalAlign=middle;whiteSpace=wrap;rounded=0;rotation=-90;" parent="1" vertex="1">
          <mxGeometry x="630" y="130" width="140" height="15" as="geometry" />
        </mxCell>
        <mxCell id="0pBTjXm3hgC8G4XIWA7s-10" value="Inspiration" style="text;html=1;strokeColor=none;fillColor=none;align=center;verticalAlign=middle;whiteSpace=wrap;rounded=0;rotation=-90;" parent="1" vertex="1">
          <mxGeometry x="200" y="110" width="140" height="15" as="geometry" />
        </mxCell>
        <mxCell id="FztsdhfekNK0aXIRvkF4-18" style="edgeStyle=orthogonalEdgeStyle;rounded=0;orthogonalLoop=1;jettySize=auto;html=1;exitX=0.5;exitY=0;exitDx=0;exitDy=0;endArrow=none;endFill=0;" parent="1" source="k-c9xOF6KfIPOerJ2Ct1-1" target="iTPlaFrZ3am5uFywpVSG-4" edge="1">
          <mxGeometry relative="1" as="geometry">
            <Array as="points">
              <mxPoint x="-160" y="-120" />
              <mxPoint x="130" y="-120" />
            </Array>
          </mxGeometry>
        </mxCell>
        <mxCell id="k-c9xOF6KfIPOerJ2Ct1-1" value="Elliptic Curve Cryptography" style="rounded=0;whiteSpace=wrap;html=1;verticalAlign=top;fontStyle=1" parent="1" vertex="1">
          <mxGeometry x="-280" y="470" width="240" height="50" as="geometry" />
        </mxCell>
        <mxCell id="k-c9xOF6KfIPOerJ2Ct1-2" value="&lt;div style=&quot;font-size: 10px;&quot;&gt;&lt;/div&gt;&lt;i&gt;1985 &quot;Use of Elliptic Curves in Cryptography&quot;&lt;br&gt;1986 &quot;Elliptic Curve Cryptosystems&quot;&lt;br&gt;&lt;/i&gt;" style="text;html=1;strokeColor=none;fillColor=none;align=center;verticalAlign=middle;whiteSpace=wrap;rounded=0;fontSize=10;" parent="1" vertex="1">
          <mxGeometry x="-280" y="490" width="240" height="30" as="geometry" />
        </mxCell>
        <mxCell id="iTPlaFrZ3am5uFywpVSG-7" style="edgeStyle=orthogonalEdgeStyle;rounded=0;orthogonalLoop=1;jettySize=auto;html=1;exitX=0.5;exitY=0;exitDx=0;exitDy=0;endArrow=none;endFill=0;" parent="1" source="iTPlaFrZ3am5uFywpVSG-1" target="iTPlaFrZ3am5uFywpVSG-4" edge="1">
          <mxGeometry relative="1" as="geometry" />
        </mxCell>
        <mxCell id="iTPlaFrZ3am5uFywpVSG-1" value="1-out-of-n Signatures" style="rounded=0;whiteSpace=wrap;html=1;verticalAlign=top;fontStyle=1" parent="1" vertex="1">
          <mxGeometry x="10" y="-100" width="240" height="50" as="geometry" />
        </mxCell>
        <mxCell id="iTPlaFrZ3am5uFywpVSG-2" value="&lt;div style=&quot;font-size: 10px;&quot;&gt;&lt;/div&gt;&lt;i&gt;2002 &quot;1-out-of-n Signatures from a Variety of Keys&quot;&lt;br&gt;&lt;/i&gt;" style="text;html=1;strokeColor=none;fillColor=none;align=center;verticalAlign=middle;whiteSpace=wrap;rounded=0;fontSize=10;" parent="1" vertex="1">
          <mxGeometry x="10" y="-80" width="240" height="30" as="geometry" />
        </mxCell>
        <mxCell id="vqqAjnGBxFojaJ7kC61R-3" style="edgeStyle=orthogonalEdgeStyle;rounded=0;orthogonalLoop=1;jettySize=auto;html=1;exitX=0.5;exitY=0;exitDx=0;exitDy=0;entryX=0.5;entryY=1;entryDx=0;entryDy=0;endArrow=none;endFill=0;" edge="1" parent="1" source="iTPlaFrZ3am5uFywpVSG-3" target="vqqAjnGBxFojaJ7kC61R-2">
          <mxGeometry relative="1" as="geometry">
            <Array as="points">
              <mxPoint x="130" y="-210" />
              <mxPoint x="-80" y="-210" />
              <mxPoint x="-80" y="-240" />
            </Array>
          </mxGeometry>
        </mxCell>
        <mxCell id="iTPlaFrZ3am5uFywpVSG-3" value="Borromean Ring Signatures" style="rounded=0;whiteSpace=wrap;html=1;verticalAlign=top;fontStyle=1" parent="1" vertex="1">
          <mxGeometry x="10" y="-190" width="240" height="50" as="geometry" />
        </mxCell>
        <mxCell id="iTPlaFrZ3am5uFywpVSG-4" value="2015 &quot;Borromean Ring Signatures&quot;" style="text;html=1;strokeColor=none;fillColor=none;align=center;verticalAlign=middle;whiteSpace=wrap;rounded=0;fontSize=10;fontStyle=2" parent="1" vertex="1">
          <mxGeometry x="10" y="-170" width="240" height="30" as="geometry" />
        </mxCell>
        <mxCell id="iTPlaFrZ3am5uFywpVSG-13" style="edgeStyle=orthogonalEdgeStyle;rounded=0;orthogonalLoop=1;jettySize=auto;html=1;exitX=0.5;exitY=0;exitDx=0;exitDy=0;endArrow=none;endFill=0;" parent="1" source="iTPlaFrZ3am5uFywpVSG-10" target="iTPlaFrZ3am5uFywpVSG-2" edge="1">
          <mxGeometry relative="1" as="geometry" />
        </mxCell>
        <mxCell id="iTPlaFrZ3am5uFywpVSG-10" value="Witness Indistinguishable Signatures" style="rounded=0;whiteSpace=wrap;html=1;verticalAlign=top;fontStyle=1" parent="1" vertex="1">
          <mxGeometry x="10" y="140" width="240" height="50" as="geometry" />
        </mxCell>
        <mxCell id="iTPlaFrZ3am5uFywpVSG-11" value="&lt;div style=&quot;font-size: 10px;&quot;&gt;&lt;/div&gt;&lt;i&gt;1994 &quot;Proofs of Partial Knowledge and Simplified&lt;div&gt;Design of Witness Hiding Protocols&quot;&lt;/div&gt;&lt;/i&gt;" style="text;html=1;strokeColor=none;fillColor=none;align=center;verticalAlign=middle;whiteSpace=wrap;rounded=0;fontSize=10;" parent="1" vertex="1">
          <mxGeometry x="10" y="160" width="240" height="30" as="geometry" />
        </mxCell>
        <mxCell id="iTPlaFrZ3am5uFywpVSG-21" value="Schnorr Signatures" style="rounded=0;whiteSpace=wrap;html=1;verticalAlign=top;fontStyle=1" parent="1" vertex="1">
          <mxGeometry y="235" width="270" height="50" as="geometry" />
        </mxCell>
        <mxCell id="iTPlaFrZ3am5uFywpVSG-22" value="&lt;div style=&quot;font-size: 10px;&quot;&gt;&lt;/div&gt;&lt;i&gt;1989 &quot;Efficient identification and signatures for smart cards&quot;&lt;br&gt;1991 &quot;Efficient Signature Generation by Smart Cards&quot;&lt;br&gt;&lt;/i&gt;" style="text;html=1;strokeColor=none;fillColor=none;align=center;verticalAlign=middle;whiteSpace=wrap;rounded=0;fontSize=10;" parent="1" vertex="1">
          <mxGeometry y="255" width="270" height="30" as="geometry" />
        </mxCell>
        <mxCell id="iTPlaFrZ3am5uFywpVSG-29" style="edgeStyle=orthogonalEdgeStyle;rounded=0;orthogonalLoop=1;jettySize=auto;html=1;exitX=0.5;exitY=0;exitDx=0;exitDy=0;entryX=0.5;entryY=1;entryDx=0;entryDy=0;endArrow=none;endFill=0;" parent="1" source="iTPlaFrZ3am5uFywpVSG-24" target="iTPlaFrZ3am5uFywpVSG-11" edge="1">
          <mxGeometry relative="1" as="geometry">
            <Array as="points">
              <mxPoint x="-10" y="210" />
              <mxPoint x="130" y="210" />
            </Array>
          </mxGeometry>
        </mxCell>
        <mxCell id="iTPlaFrZ3am5uFywpVSG-24" value="k-out-of-n Threshold Scheme" style="rounded=0;whiteSpace=wrap;html=1;verticalAlign=top;fontStyle=1" parent="1" vertex="1">
          <mxGeometry x="-130" y="615" width="240" height="50" as="geometry" />
        </mxCell>
        <mxCell id="iTPlaFrZ3am5uFywpVSG-25" value="&lt;div style=&quot;font-size: 10px;&quot;&gt;&lt;/div&gt;&lt;i&gt;1979 &quot;How to Share a Secret&quot;&lt;br&gt;&lt;/i&gt;" style="text;html=1;strokeColor=none;fillColor=none;align=center;verticalAlign=middle;whiteSpace=wrap;rounded=0;fontSize=10;" parent="1" vertex="1">
          <mxGeometry x="-130" y="635" width="240" height="30" as="geometry" />
        </mxCell>
        <mxCell id="iTPlaFrZ3am5uFywpVSG-28" style="edgeStyle=orthogonalEdgeStyle;rounded=0;orthogonalLoop=1;jettySize=auto;html=1;exitX=0.5;exitY=0;exitDx=0;exitDy=0;endArrow=none;endFill=0;" parent="1" source="iTPlaFrZ3am5uFywpVSG-27" target="iTPlaFrZ3am5uFywpVSG-25" edge="1">
          <mxGeometry relative="1" as="geometry" />
        </mxCell>
        <mxCell id="iTPlaFrZ3am5uFywpVSG-27" value="Polynomial Interpolation" style="rounded=0;whiteSpace=wrap;html=1;fontStyle=1" parent="1" vertex="1">
          <mxGeometry x="-130" y="965" width="240" height="50" as="geometry" />
        </mxCell>
        <mxCell id="FztsdhfekNK0aXIRvkF4-3" style="edgeStyle=orthogonalEdgeStyle;rounded=0;orthogonalLoop=1;jettySize=auto;html=1;exitX=0.5;exitY=1;exitDx=0;exitDy=0;entryX=0.479;entryY=-0.001;entryDx=0;entryDy=0;entryPerimeter=0;endArrow=none;endFill=0;" parent="1" source="iTPlaFrZ3am5uFywpVSG-11" target="iTPlaFrZ3am5uFywpVSG-21" edge="1">
          <mxGeometry relative="1" as="geometry">
            <Array as="points">
              <mxPoint x="130" y="213" />
              <mxPoint x="129" y="213" />
            </Array>
          </mxGeometry>
        </mxCell>
        <mxCell id="FztsdhfekNK0aXIRvkF4-19" style="edgeStyle=orthogonalEdgeStyle;rounded=0;orthogonalLoop=1;jettySize=auto;html=1;exitX=0.5;exitY=0;exitDx=0;exitDy=0;entryX=0.5;entryY=1;entryDx=0;entryDy=0;endArrow=none;endFill=0;" parent="1" source="FztsdhfekNK0aXIRvkF4-7" target="iTPlaFrZ3am5uFywpVSG-4" edge="1">
          <mxGeometry relative="1" as="geometry">
            <Array as="points">
              <mxPoint x="-20" y="-120" />
              <mxPoint x="130" y="-120" />
            </Array>
          </mxGeometry>
        </mxCell>
        <mxCell id="FztsdhfekNK0aXIRvkF4-7" value="Chameleon Hashing" style="rounded=0;whiteSpace=wrap;html=1;verticalAlign=top;fontStyle=1" parent="1" vertex="1">
          <mxGeometry x="-140" y="60" width="240" height="50" as="geometry" />
        </mxCell>
        <mxCell id="FztsdhfekNK0aXIRvkF4-8" value="&lt;div style=&quot;font-size: 10px;&quot;&gt;&lt;/div&gt;&lt;i&gt;1997 &quot;Chameleon Hashing and Signatures&quot;&lt;br&gt;&lt;/i&gt;" style="text;html=1;strokeColor=none;fillColor=none;align=center;verticalAlign=middle;whiteSpace=wrap;rounded=0;fontSize=10;" parent="1" vertex="1">
          <mxGeometry x="-140" y="80" width="240" height="30" as="geometry" />
        </mxCell>
        <mxCell id="FztsdhfekNK0aXIRvkF4-24" style="edgeStyle=orthogonalEdgeStyle;rounded=0;orthogonalLoop=1;jettySize=auto;html=1;exitX=0.5;exitY=0;exitDx=0;exitDy=0;entryX=0;entryY=0.25;entryDx=0;entryDy=0;endArrow=none;endFill=0;strokeWidth=2;" parent="1" source="FztsdhfekNK0aXIRvkF4-9" target="bKiuF4yFzHOzXGZw1D5E-69" edge="1">
          <mxGeometry relative="1" as="geometry" />
        </mxCell>
        <mxCell id="FztsdhfekNK0aXIRvkF4-9" value="Undeniable Signatures" style="rounded=0;whiteSpace=wrap;html=1;verticalAlign=top;fontStyle=1" parent="1" vertex="1">
          <mxGeometry x="10" y="355" width="240" height="50" as="geometry" />
        </mxCell>
        <mxCell id="FztsdhfekNK0aXIRvkF4-13" style="edgeStyle=orthogonalEdgeStyle;rounded=0;orthogonalLoop=1;jettySize=auto;html=1;exitX=0;exitY=0.25;exitDx=0;exitDy=0;strokeWidth=2;dashed=1;endArrow=none;endFill=0;" parent="1" source="FztsdhfekNK0aXIRvkF4-10" target="FztsdhfekNK0aXIRvkF4-8" edge="1">
          <mxGeometry relative="1" as="geometry" />
        </mxCell>
        <mxCell id="FztsdhfekNK0aXIRvkF4-10" value="&lt;span style=&quot;background-color: initial;&quot;&gt;1989 &quot;Undeniable Signatures&quot;&lt;br&gt;&lt;/span&gt;" style="text;html=1;strokeColor=none;fillColor=none;align=center;verticalAlign=middle;whiteSpace=wrap;rounded=0;fontSize=10;fontStyle=2" parent="1" vertex="1">
          <mxGeometry x="10" y="375" width="240" height="30" as="geometry" />
        </mxCell>
        <mxCell id="FztsdhfekNK0aXIRvkF4-25" style="edgeStyle=orthogonalEdgeStyle;rounded=0;orthogonalLoop=1;jettySize=auto;html=1;exitX=0.5;exitY=0;exitDx=0;exitDy=0;entryX=0.478;entryY=1.048;entryDx=0;entryDy=0;entryPerimeter=0;endArrow=none;endFill=0;" parent="1" source="FztsdhfekNK0aXIRvkF4-9" target="iTPlaFrZ3am5uFywpVSG-22" edge="1">
          <mxGeometry relative="1" as="geometry" />
        </mxCell>
        <mxCell id="vqqAjnGBxFojaJ7kC61R-1" value="Confidential Transaction Values" style="rounded=0;whiteSpace=wrap;html=1;verticalAlign=top;fontStyle=1" vertex="1" parent="1">
          <mxGeometry x="-200" y="-310" width="240" height="50" as="geometry" />
        </mxCell>
        <mxCell id="vqqAjnGBxFojaJ7kC61R-2" value="2015 &quot;Confidential Transactions&quot;" style="text;html=1;strokeColor=none;fillColor=none;align=center;verticalAlign=middle;whiteSpace=wrap;rounded=0;fontSize=10;fontStyle=2" vertex="1" parent="1">
          <mxGeometry x="-200" y="-290" width="240" height="30" as="geometry" />
        </mxCell>
        <mxCell id="vqqAjnGBxFojaJ7kC61R-13" style="edgeStyle=orthogonalEdgeStyle;rounded=0;orthogonalLoop=1;jettySize=auto;html=1;exitX=0.5;exitY=0;exitDx=0;exitDy=0;entryX=0.5;entryY=1;entryDx=0;entryDy=0;endArrow=none;endFill=0;" edge="1" parent="1" target="vqqAjnGBxFojaJ7kC61R-2">
          <mxGeometry relative="1" as="geometry">
            <mxPoint x="-290" y="295" as="sourcePoint" />
            <mxPoint x="-160" y="-240" as="targetPoint" />
            <Array as="points">
              <mxPoint x="-290" y="-210" />
              <mxPoint x="-80" y="-210" />
            </Array>
          </mxGeometry>
        </mxCell>
        <mxCell id="vqqAjnGBxFojaJ7kC61R-4" value="Pedersen Commitment" style="rounded=0;whiteSpace=wrap;html=1;verticalAlign=top;fontStyle=1" vertex="1" parent="1">
          <mxGeometry x="-410" y="295" width="240" height="50" as="geometry" />
        </mxCell>
        <mxCell id="vqqAjnGBxFojaJ7kC61R-5" value="1991 &quot;Non-Interactive and Information-Theoretic Secure Verifiable Secret Sharing&quot;" style="text;html=1;strokeColor=none;fillColor=none;align=center;verticalAlign=middle;whiteSpace=wrap;rounded=0;fontSize=10;fontStyle=2" vertex="1" parent="1">
          <mxGeometry x="-410" y="315" width="240" height="30" as="geometry" />
        </mxCell>
        <mxCell id="vqqAjnGBxFojaJ7kC61R-11" style="edgeStyle=orthogonalEdgeStyle;rounded=0;orthogonalLoop=1;jettySize=auto;html=1;exitX=0.5;exitY=0;exitDx=0;exitDy=0;entryX=0.5;entryY=1;entryDx=0;entryDy=0;endArrow=none;endFill=0;" edge="1" parent="1" source="vqqAjnGBxFojaJ7kC61R-8" target="vqqAjnGBxFojaJ7kC61R-5">
          <mxGeometry relative="1" as="geometry" />
        </mxCell>
        <mxCell id="vqqAjnGBxFojaJ7kC61R-8" value=" Zero-Knowledge Blobs" style="rounded=0;whiteSpace=wrap;html=1;verticalAlign=top;fontStyle=1" vertex="1" parent="1">
          <mxGeometry x="-410" y="380" width="240" height="50" as="geometry" />
        </mxCell>
        <mxCell id="vqqAjnGBxFojaJ7kC61R-9" value="1987 &quot;A discrete logarithm implementation of perfect zero-knowledge blobs&quot;" style="text;html=1;strokeColor=none;fillColor=none;align=center;verticalAlign=middle;whiteSpace=wrap;rounded=0;fontSize=10;fontStyle=2" vertex="1" parent="1">
          <mxGeometry x="-410" y="400" width="240" height="30" as="geometry" />
        </mxCell>
      </root>
    </mxGraphModel>
  </diagram>
</mxfile>
